<!-- icon666.com - MILLIONS vector ICONS FREE --><svg viewBox="0 0 180 180" xmlns="http://www.w3.org/2000/svg" xmlns:xlink="http://www.w3.org/1999/xlink"><linearGradient id="linear-gradient" gradientUnits="userSpaceOnUse" x1="90" x2="90" y2="180"><stop offset="0" stop-color="#26c3f3"></stop><stop offset="1" stop-color="#3c65af"></stop></linearGradient><g id="Layer_2" data-name="Layer 2"><g id="_029.close" data-name="029.close"><rect id="background" fill="url(#linear-gradient)" height="180" rx="90" width="180"></rect><g id="icon" fill="#fff"><path d="m90 96.89-15.49 15.48-6.88-6.88 15.49-15.49-15.49-15.49 6.88-6.88 15.49 15.48 15.49-15.48 6.88 6.88-15.48 15.49 15.48 15.49-6.88 6.88z"></path><path d="m90 140a50 50 0 1 1 50-50 50.06 50.06 0 0 1 -50 50zm0-90.26a40.26 40.26 0 1 0 40.26 40.26 40.3 40.3 0 0 0 -40.26-40.26z"></path></g></g></g></svg>