<!-- icon666.com - MILLIONS vector ICONS FREE --><svg viewBox="0 -5 512 511" xmlns="http://www.w3.org/2000/svg"><path d="m410.347656 91.464844c-16.855468-48.632813-63.058594-83.550782-117.421875-83.550782-54.835937 0-101.371093 35.523438-117.855469 84.816407-6.214843-1.5-12.695312-2.316407-19.367187-2.316407-39.335937 0-72.210937 27.59375-80.371094 64.476563-38.226562 4.691406-67.832031 37.246094-67.832031 76.742187 0 42.714844 34.628906 77.34375 77.34375 77.34375h310.375c60.355469 0 109.28125-48.925781 109.28125-109.28125 0-55.21875-40.960938-100.867187-94.152344-108.230468zm0 0" fill="#d8d7da"></path><path d="m47.5 231.632812c0-39.492187 29.605469-72.050781 67.832031-76.742187 8.160157-36.882813 41.035157-64.476563 80.371094-64.476563 6.671875 0 13.152344.816407 19.367187 2.316407 14.4375-43.171875 51.929688-75.78125 97.859376-83.214844-6.511719-1.054687-13.195313-1.601563-20.003907-1.601563-54.835937 0-101.371093 35.523438-117.859375 84.8125-6.210937-1.496093-12.691406-2.3125-19.367187-2.3125-39.335938 0-72.207031 27.59375-80.367188 64.476563-38.226562 4.691406-67.832031 37.246094-67.832031 76.742187 0 42.714844 34.628906 77.34375 77.34375 77.34375h40c-42.714844 0-77.34375-34.628906-77.34375-77.34375zm0 0" fill="#c6c5ca"></path><path d="m125.734375 401.867188c23.738281 14.128906 51.457031-14.421876 37.441406-62.914063-49.304687 10.8125-61.179687 48.789063-37.441406 62.914063zm0 0" fill="#96ccec"></path><path d="m239.292969 401.867188c23.738281 14.128906 51.453125-14.421876 37.441406-62.914063-49.304687 10.8125-61.179687 48.789063-37.441406 62.914063zm0 0" fill="#75b8db"></path><path d="m352.851562 401.867188c23.738282 14.128906 51.453126-14.421876 37.4375-62.914063-49.304687 10.8125-61.175781 48.789063-37.4375 62.914063zm0 0" fill="#96ccec"></path><path d="m182.515625 490.367188c23.738281 14.125 51.453125-14.421876 37.4375-62.914063-49.300781 10.8125-61.175781 48.785156-37.4375 62.914063zm0 0" fill="#75b8db"></path><path d="m296.070312 490.367188c23.738282 14.125 51.453126-14.421876 37.441407-62.914063-49.304688 10.8125-61.179688 48.785156-37.441407 62.914063zm0 0" fill="#75b8db"></path><path d="m415.875 84.835938c-19.515625-50.632813-68.359375-84.335938-122.949219-84.335938-17.644531 0-34.785156 3.4375-50.945312 10.21875-3.816407 1.605469-5.613281 6-4.011719 9.820312 1.601562 3.816407 6 5.613282 9.816406 4.011719 14.3125-6.003906 29.5-9.050781 45.140625-9.050781 49.722657 0 94.0625 31.550781 110.335938 78.503906.925781 2.667969 3.265625 4.585938 6.058593 4.972656 24.105469 3.339844 46.273438 15.304688 62.417969 33.691407 16.289063 18.558593 25.261719 42.390625 25.261719 67.113281 0 21.273438-6.492188 41.648438-18.773438 58.917969-2.402343 3.375-1.613281 8.058593 1.761719 10.460937 3.335938 2.371094 8.089844 1.566406 10.460938-1.765625 14.097656-19.828125 21.550781-43.207031 21.550781-67.613281 0-28.367188-10.296875-55.714844-28.992188-77.007812-17.511718-19.945313-41.210937-33.304688-67.132812-37.9375zm0 0"></path><path d="m459.042969 279.0625c-18.261719 14.71875-40.332031 22.5-63.824219 22.5h-310.375c-38.511719 0-69.84375-31.332031-69.84375-69.84375 0-35.222656 26.328125-65.011719 61.246094-69.296875 3.15625-.386719 5.722656-2.722656 6.410156-5.824219 3.621094-16.363281 12.820312-31.230468 25.902344-41.867187 13.265625-10.789063 30.007812-16.726563 47.144531-16.726563 5.894531 0 11.820313.707032 17.605469 2.101563 3.785156.914062 7.636718-1.21875 8.875-4.910157 7.46875-22.339843 21.417968-41.722656 40.332031-56.050781 3.300781-2.503906 3.953125-7.207031 1.449219-10.507812-2.5-3.300781-7.203125-3.953125-10.507813-1.449219-19.550781 14.8125-34.398437 34.417969-43.234375 57-4.8125-.785156-9.671875-1.183594-14.519531-1.183594-20.570313 0-40.675781 7.132813-56.609375 20.085938-14.34375 11.664062-24.800781 27.578125-29.8125 45.234375-39.847656 7.378906-69.28125 42.351562-69.28125 83.394531 0 46.785156 38.0625 84.84375 84.84375 84.84375h310.375c26.570312 0 52.582031-9.171875 73.238281-25.824219 3.226563-2.597656 3.730469-7.320312 1.132813-10.546875-2.601563-3.222656-7.320313-3.730468-10.546875-1.128906zm0 0"></path><path d="m189.160156 167.605469v13.988281c0 4.144531 3.359375 7.5 7.5 7.5s7.5-3.355469 7.5-7.5v-13.988281c0-4.144531-3.359375-7.5-7.5-7.5s-7.5 3.355469-7.5 7.5zm0 0"></path><path d="m358.769531 181.59375v-13.988281c0-4.144531-3.359375-7.5-7.5-7.5-4.144531 0-7.5 3.355469-7.5 7.5v13.988281c0 4.144531 3.355469 7.5 7.5 7.5 4.140625 0 7.5-3.355469 7.5-7.5zm0 0"></path><path d="m273.964844 196.5625c9.601562 0 18.613281-4.011719 24.726562-11.003906 2.726563-3.121094 2.40625-7.859375-.710937-10.585938-3.121094-2.726562-7.859375-2.40625-10.582031.710938-3.265626 3.738281-8.164063 5.878906-13.433594 5.878906-5.273438 0-10.167969-2.140625-13.433594-5.878906-2.726562-3.117188-7.464844-3.4375-10.582031-.710938-3.121094 2.726563-3.4375 7.464844-.710938 10.585938 6.113281 6.992187 15.125 11.003906 24.726563 11.003906zm0 0"></path><path d="m161.570312 331.714844c-29.871093 6.550781-51.34375 24.191406-54.703124 44.945312-2.105469 13.019532 3.511718 24.886719 15.03125 31.738282 14.722656 8.761718 32.109374 4.203124 42.179687-9.1875 5.273437-7.015626 16.453125-27.128907 6.304687-62.25-1.097656-3.796876-4.949218-6.09375-8.8125-5.246094zm-9.480468 58.480468c-5.425782 7.210938-14.304688 10.203126-22.519532 5.3125-6.210937-3.695312-9.015624-9.539062-7.894531-16.453124 2.371094-14.644532 18.839844-25.515626 36.058594-30.828126 3.53125 17.070313 1.542969 32.414063-5.644531 41.96875zm0 0"></path><path d="m275.128906 331.714844c-29.871094 6.550781-51.34375 24.191406-54.703125 44.945312-2.109375 13.019532 3.511719 24.882813 15.03125 31.738282 14.722657 8.761718 32.105469 4.207031 42.179688-9.1875 5.273437-7.015626 16.453125-27.128907 6.300781-62.25-1.09375-3.796876-4.949219-6.09375-8.808594-5.246094zm-9.484375 58.480468c-5.5 7.316407-14.367187 10.164063-22.515625 5.3125-6.210937-3.695312-9.015625-9.539062-7.898437-16.453124 2.371093-14.648438 18.839843-25.515626 36.058593-30.832032 3.53125 17.074219 1.542969 32.417969-5.644531 41.972656zm0 0"></path><path d="m397.496094 336.960938c-1.097656-3.796876-4.949219-6.09375-8.8125-5.246094-29.871094 6.550781-51.34375 24.191406-54.703125 44.945312-2.105469 13.019532 3.511719 24.882813 15.035156 31.738282 14.71875 8.761718 32.117187 4.1875 42.175781-9.1875 5.277344-7.015626 16.453125-27.128907 6.304688-62.25zm-18.292969 53.234374c-5.417969 7.207032-14.304687 10.203126-22.519531 5.3125-6.210938-3.695312-9.011719-9.539062-7.894532-16.453124 2.371094-14.648438 18.839844-25.515626 36.058594-30.832032 3.53125 17.074219 1.542969 32.417969-5.644531 41.972656zm0 0"></path><path d="m218.347656 420.214844c-29.871094 6.550781-51.339844 24.191406-54.699218 44.945312-2.109376 13.019532 3.511718 24.882813 15.03125 31.738282 14.730468 8.765624 32.109374 4.203124 42.175781-9.1875 5.277343-7.019532 16.453125-27.132813 6.304687-62.253907-1.097656-3.796875-4.949218-6.089843-8.8125-5.242187zm-9.480468 58.480468c-5.425782 7.214844-14.304688 10.203126-22.515626 5.3125-6.210937-3.695312-9.015624-9.539062-7.898437-16.453124 2.371094-14.644532 18.839844-25.515626 36.058594-30.832032 3.53125 17.074219 1.542969 32.414063-5.644531 41.972656zm0 0"></path><path d="m331.90625 420.214844c-29.871094 6.546875-51.34375 24.191406-54.703125 44.941406-2.105469 13.019531 3.511719 24.886719 15.03125 31.742188 14.589844 8.683593 32.050781 4.28125 42.175781-9.1875 5.277344-7.019532 16.457032-27.132813 6.304688-62.253907-1.09375-3.796875-4.945313-6.089843-8.808594-5.242187zm-9.480469 58.480468c-5.417969 7.203126-14.304687 10.203126-22.519531 5.3125-6.210938-3.695312-9.015625-9.539062-7.894531-16.453124 2.371093-14.648438 18.835937-25.515626 36.054687-30.832032 3.53125 17.074219 1.542969 32.414063-5.640625 41.972656zm0 0"></path></svg>