<!-- icon666.com - MILLIONS vector ICONS FREE --><svg id="Capa_1" enable-background="new 0 0 512 512" viewBox="0 0 512 512" xmlns="http://www.w3.org/2000/svg"><path d="m315.922 221.472-.067-.084c-13.066-16.329-18.701-37.382-15.541-58.055l.014-.089c1.095-7.161-2.928-14.122-9.679-16.748-19.545-7.603-35.001-23.06-42.605-42.605-2.626-6.751-9.587-10.774-16.748-9.68l-.09.014c-20.673 3.16-41.725-2.475-58.054-15.541l-.084-.067c-5.648-4.519-13.674-4.519-19.322 0l-.084.067c-16.329 13.066-37.382 18.702-58.055 15.541l-.089-.014c-7.161-1.095-14.122 2.928-16.748 9.68-7.603 19.545-23.06 35.001-42.605 42.605h-.001c-6.751 2.626-10.774 9.587-9.68 16.748l.014.09c3.16 20.673-2.475 41.725-15.541 58.054l-.067.084c-4.519 5.648-4.519 13.674 0 19.322l.067.083c13.066 16.329 18.702 37.382 15.541 58.055l-.014.088c-1.095 7.161 2.928 14.122 9.68 16.748 19.545 7.603 35.001 23.06 42.605 42.605 2.626 6.751 9.587 10.774 16.748 9.68l.09-.014c20.673-3.16 41.725 2.475 58.054 15.541l.084.067c5.648 4.519 13.674 4.519 19.322 0l.084-.067c16.329-13.066 37.382-18.702 58.055-15.541l.088.013c7.161 1.095 14.122-2.928 16.749-9.68 7.603-19.545 23.06-35.002 42.605-42.605 6.751-2.626 10.774-9.587 9.68-16.748l-.014-.09c-3.16-20.673 2.475-41.725 15.541-58.054l.067-.084c4.52-5.645 4.52-13.671 0-19.319z" fill="#ff748f"></path><path d="m231.206 368.041.088.013c7.161 1.095 14.122-2.928 16.749-9.679 7.603-19.545 23.06-35.001 42.605-42.605 6.751-2.626 10.774-9.588 9.68-16.749l-.014-.09c-3.16-20.673 2.475-41.725 15.541-58.054l.067-.084c4.519-5.648 4.519-13.674 0-19.322l-.067-.084c-11.366-14.205-17.102-31.984-16.323-49.979-25.457 2.122-49.489 11.262-70.087 26.767-18.314 13.787-32.97 32.24-42.346 53.047-21.285 3.91-40.845 14.234-56.313 29.956-19.649 19.973-30.472 46.405-30.472 74.428 0 4 .23 7.948.663 11.834 18.909-1.506 37.767 4.206 52.683 16.141l.084.067c5.648 4.52 13.674 4.52 19.322 0l.084-.067c16.33-13.065 37.383-18.701 58.056-15.54z" fill="#f9496e"></path><circle cx="163.406" cy="231.133" fill="#f8e86a" r="108.98"></circle><path d="m105.298 323.338c16.82 10.622 36.744 16.775 58.108 16.775 60.188 0 108.98-48.792 108.98-108.98 0-18.153-4.444-35.266-12.295-50.32-10.816 4.388-21.104 10.181-30.645 17.363-18.314 13.787-32.97 32.24-42.346 53.047-21.285 3.91-40.845 14.234-56.313 29.956-11.861 12.055-20.499 26.467-25.489 42.159z" fill="#fab659"></path><path d="m412.088 436.773c51.038 0 92.412-41.374 92.412-92.412s-41.374-92.412-92.412-92.412c-1.541 0-3.072.04-4.594.114-19.062-33.526-55.099-56.14-96.422-56.14-49.985 0-92.237 33.089-106.062 78.555-44.146.788-79.696 36.796-79.696 81.129 0 44.827 36.34 81.167 81.167 81.167h205.607z" fill="#e8e8e8"></path><path d="m99.445 190.263v10.223c0 4.142 3.358 7.499 7.499 7.499s7.499-3.358 7.499-7.499v-10.223c0-4.142-3.358-7.499-7.499-7.499s-7.499 3.358-7.499 7.499z"></path><path d="m219.916 207.986c4.142 0 7.499-3.358 7.499-7.499v-10.223c0-4.142-3.358-7.499-7.499-7.499s-7.499 3.358-7.499 7.499v10.223c-.001 4.141 3.357 7.499 7.499 7.499z"></path><path d="m163.43 213.443c7.598 0 14.737-3.182 19.587-8.732 2.726-3.118 2.408-7.856-.71-10.582-3.118-2.725-7.856-2.408-10.582.711-2.002 2.29-5.026 3.604-8.295 3.604s-6.293-1.314-8.295-3.604c-2.726-3.119-7.464-3.437-10.582-.711-3.118 2.725-3.437 7.463-.711 10.582 4.851 5.549 11.99 8.732 19.588 8.732z"></path><path d="m234.219 318.661v13.248c0 4.142 3.358 7.499 7.499 7.499s7.499-3.358 7.499-7.499v-13.248c0-4.142-3.358-7.499-7.499-7.499s-7.499 3.357-7.499 7.499z"></path><path d="m380.624 318.661v13.248c0 4.142 3.358 7.499 7.499 7.499 4.142 0 7.499-3.358 7.499-7.499v-13.248c0-4.142-3.358-7.499-7.499-7.499s-7.499 3.357-7.499 7.499z"></path><path d="m327.342 326.052c-3.016 3.451-7.543 5.43-12.421 5.43s-9.405-1.979-12.421-5.429c-2.726-3.119-7.464-3.437-10.582-.711-3.119 2.726-3.437 7.463-.711 10.582 5.864 6.71 14.508 10.558 23.714 10.558s17.849-3.848 23.714-10.558c2.726-3.118 2.408-7.856-.711-10.582-3.118-2.727-7.857-2.409-10.582.71z"></path><path d="m71.81 361.104c3.929 10.101 14.154 16.008 24.959 14.36 7.848-1.2 15.714-.994 23.45.572 9.246 39.077 44.421 68.241 86.283 68.241h205.593c22.268 0 43.343-7.174 60.947-20.747 3.28-2.529 3.889-7.238 1.36-10.518s-7.237-3.889-10.518-1.36c-14.956 11.531-32.864 17.626-51.789 17.626h-205.593c-36.266 0-66.473-26.351-72.533-60.907-1.841-10.5-1.38-21.568 1.416-31.967.014-.047.033-.092.046-.14 8.37-30.934 37.712-53.712 69.735-54.272 3.252-.058 6.095-2.205 7.041-5.317 5.135-16.886 14.752-32.368 27.48-44.578 18.965-18.194 45.121-28.654 71.399-28.654 37.092 0 71.538 20.057 89.896 52.344 1.398 2.459 4.07 3.923 6.885 3.784 41.399-2.039 80.354 28.738 87.765 69.568 3.865 21.291-.713 44.128-12.904 62.36-2.302 3.443-1.377 8.1 2.066 10.403 3.443 2.302 8.101 1.378 10.403-2.065 10.993-16.44 16.804-35.62 16.804-55.465 0-55.088-44.817-99.905-99.905-99.905-.132 0-.264 0-.396.001-21.517-34.67-59.656-56.023-100.613-56.023-.879 0-1.752.033-2.628.052-1.657-7.897-1.926-16.09-.715-24.007.004-.026.013-.085.014-.088 1.638-10.714-4.273-20.94-14.374-24.87-17.538-6.823-31.509-20.794-38.332-38.332-3.929-10.1-14.155-16.008-24.959-14.36-18.547 2.838-37.583-2.261-52.224-13.976l-.092-.073c-8.446-6.759-20.244-6.758-28.699.006l-.076.062c-14.649 11.721-33.684 16.817-52.321 13.968-10.711-1.638-20.94 4.273-24.87 14.374-6.822 17.538-20.793 31.509-38.332 38.332-10.101 3.929-16.011 14.156-14.36 24.959 2.835 18.546-2.261 37.583-13.989 52.24l-.06.075c-6.759 8.447-6.759 20.246.003 28.696l.064.08c11.721 14.649 16.818 33.687 13.984 52.219-.001.004-.015.097-.016.102-1.638 10.714 4.273 20.94 14.374 24.87 17.537 6.821 31.508 20.793 38.331 38.33zm-54.966-124.897-.064-.08c-2.344-2.929-2.344-7.021.007-9.959l.06-.075c14.332-17.912 20.564-41.191 17.084-63.958-.568-3.715 1.482-7.262 4.985-8.624 21.445-8.343 38.53-25.427 46.872-46.873 1.208-3.105 4.133-5.068 7.432-5.068.422 0 .85.032 1.282.098 22.677 3.465 45.957-2.765 63.877-17.104l.076-.061c2.93-2.344 7.021-2.343 9.943-.006l.092.073c17.913 14.333 41.193 20.563 63.958 17.084 3.719-.573 7.262 1.482 8.625 4.985 8.343 21.445 25.427 38.53 46.872 46.872 3.503 1.363 5.553 4.909 4.987 8.612 0 0-.014.088-.016.102-1.388 9.078-1.214 18.455.48 27.543-6.631.987-13.13 2.518-19.445 4.602-15.684-47.311-59.987-79.689-110.519-79.689-14.772 0-29.173 2.732-42.801 8.12-3.852 1.522-5.74 5.879-4.217 9.731s5.879 5.74 9.731 4.217c11.865-4.691 24.41-7.069 37.287-7.069 44.344 0 83.198 28.606 96.597 70.303-2.233 1.072-4.431 2.23-6.602 3.447-22.46 12.592-40.624 32.428-50.914 56.21-1.07 2.474-2.087 5.046-2.993 7.611-.797.062-2.956.291-3.241.325-19.915 2.33-38.92 11.59-52.991 25.891-8.832 8.977-15.505 19.526-19.806 30.994-37.095-15.866-61.523-52.452-61.523-93.309 0-32.067 14.689-61.576 40.3-80.961 3.302-2.499 3.953-7.203 1.454-10.506-2.499-3.302-7.203-3.953-10.506-1.454-29.391 22.245-46.247 56.113-46.247 92.92 0 47.558 28.85 90.055 72.447 107.836-1.027 5.429-1.564 10.989-1.564 16.629 0 1.616.046 3.22.132 4.815-7.777-1.06-15.656-.989-23.561.218-3.722.57-7.263-1.482-8.625-4.985-8.342-21.445-25.427-38.529-46.872-46.872-3.503-1.363-5.553-4.909-4.987-8.612.001-.004.015-.097.016-.102 3.466-22.675-2.766-45.954-17.102-63.871z"></path></svg>