<!-- icon666.com - MILLIONS vector ICONS FREE --><svg viewBox="0 -10 512.002 512" xmlns="http://www.w3.org/2000/svg"><path d="m504.5 7.472656h-497v41.253906c0 22.785157 18.46875 41.253907 41.253906 41.253907 2.386719 0 4.71875-.214844 6.992188-.601563.71875 37.621094 31.417968 67.902344 69.210937 67.902344 11.878907 0 23.058594-2.996094 32.828125-8.265625 11.945313 43.019531 51.390625 74.597656 98.214844 74.597656s86.269531-31.578125 98.214844-74.597656c9.769531 5.269531 20.949218 8.265625 32.832031 8.265625 37.792969 0 68.492187-30.28125 69.210937-67.902344 2.269532.386719 4.605469.601563 6.988282.601563 22.785156 0 41.257812-18.46875 41.257812-41.253907v-41.253906zm0 0" fill="#c1c4c7"></path><path d="m7.5 7.472656v41.253906c0 22.785157 18.46875 41.253907 41.253906 41.253907 2.386719 0 4.71875-.214844 6.992188-.601563.71875 37.621094 31.417968 67.902344 69.210937 67.902344 11.878907 0 23.058594-2.996094 32.828125-8.265625 11.945313 43.019531 51.390625 74.597656 98.214844 74.597656 13.386719 0 26.160156-2.589843 37.871094-7.277343-183.171875-.015626-130.796875-208.863282-130.796875-208.863282zm0 0" fill="#adb0b3"></path><path d="m163.351562 282.378906h-56.609374l15.351562-82.003906c.898438-4.273438-4.734375-6.683594-7.203125-3.078125l-81.570313 119.386719c-3.046874 4.453125.144532 10.5 5.539063 10.5h56.609375l-15.351562 82c-.898438 4.277344 4.738281 6.683594 7.207031 3.078125l81.570312-119.386719c3.042969-4.453125-.148437-10.496094-5.542969-10.496094zm0 0" fill="#f6d78f"></path><path d="m465.058594 215.597656h-65.226563l17.6875-94.484375c1.035157-4.929687-5.457031-7.703125-8.300781-3.550781l-93.988281 137.5625c-3.507813 5.132812.167969 12.097656 6.386719 12.097656h65.226562l-17.6875 94.484375c-1.035156 4.925781 5.453125 7.699219 8.300781 3.546875l93.988281-137.558594c3.503907-5.136718-.171874-12.097656-6.386718-12.097656zm0 0" fill="#f6d78f"></path><path d="m304.25 374.757812h-47.089844l12.769532-68.210937c.746093-3.554687-3.941407-5.558594-5.996094-2.5625l-67.851563 99.3125c-2.53125 3.703125.121094 8.730469 4.609375 8.730469h47.089844l-12.769531 68.210937c-.746094 3.558594 3.9375 5.5625 5.992187 2.5625l67.855469-99.308593c2.53125-3.707032-.121094-8.734376-4.609375-8.734376zm0 0" fill="#e9c16e"></path><path d="m176.167969 45.535156v13.089844c0 4.140625 3.355469 7.5 7.5 7.5 4.140625 0 7.5-3.359375 7.5-7.5v-13.089844c0-4.144531-3.359375-7.5-7.5-7.5-4.144531 0-7.5 3.355469-7.5 7.5zm0 0"></path><path d="m328.332031 66.125c4.144531 0 7.5-3.359375 7.5-7.5v-13.089844c0-4.144531-3.355469-7.5-7.5-7.5-4.140625 0-7.5 3.355469-7.5 7.5v13.089844c0 4.140625 3.359375 7.5 7.5 7.5zm0 0"></path><path d="m256 73.113281c9.121094 0 17.6875-3.8125 23.5-10.464843 2.726562-3.117188 2.40625-7.855469-.710938-10.582032-3.117187-2.726562-7.855468-2.410156-10.582031.710938-2.964843 3.390625-7.414062 5.335937-12.207031 5.335937s-9.242188-1.945312-12.207031-5.335937c-2.726563-3.121094-7.464844-3.4375-10.582031-.710938-3.121094 2.726563-3.4375 7.464844-.710938 10.582032 5.8125 6.652343 14.378906 10.464843 23.5 10.464843zm0 0"></path><path d="m127.164062 192.375c-4.820312-5.9375-14.164062-5.5625-18.46875.722656l-81.570312 119.382813c-2.980469 4.363281-3.300781 9.980469-.832031 14.652343 2.464843 4.675782 7.28125 7.578126 12.566406 7.578126h47.574219l-13.675782 73.058593c-.683593 3.390625.148438 6.835938 2.289063 9.472657 4.820313 5.945312 14.15625 5.570312 18.46875-.71875l81.570313-119.386719c2.980468-4.363281 3.300781-9.980469.832031-14.652344-2.464844-4.675781-7.28125-7.578125-12.566407-7.578125h-47.574218l13.675781-73.058594c.683594-3.386718-.148437-6.835937-2.289063-9.472656zm34.695313 97.53125-71.316406 104.375s12.261719-65.5 12.296875-65.6875c.855468-4.574219-2.734375-8.882812-7.371094-8.882812h-55.117188l71.316407-104.375s-12.25 65.4375-12.296875 65.691406c-.851563 4.558594 2.753906 8.882812 7.371094 8.882812h55.117187zm0 0"></path><path d="m275.125 299.101562c-4.402344-5.421874-13.246094-5.347656-17.382812.683594l-67.851563 99.3125c-2.746094 4.015625-3.039063 9.183594-.769531 13.488282 2.273437 4.300781 6.707031 6.972656 11.570312 6.972656h38.054688l-11.09375 59.273437c-.640625 3.1875.144531 6.429688 2.160156 8.914063 4.535156 5.589844 13.324219 5.242187 17.382812-.683594l67.855469-99.308594c2.742188-4.015625 3.039063-9.183594.765625-13.488281-2.269531-4.300781-6.703125-6.976563-11.570312-6.976563h-38.054688l11.09375-59.269531c.644532-3.1875-.140625-6.433593-2.160156-8.917969zm25.492188 83.1875-54.589844 79.898438s9.113281-48.675781 9.125-48.746094c.859375-4.582031-2.722656-8.882812-7.371094-8.882812h-43.457031l54.585937-79.894532s-9.09375 48.589844-9.121094 48.746094c-.855468 4.570313 2.71875 8.878906 7.371094 8.878906zm0 0"></path><path d="m504.5 0h-497c-4.140625 0-7.5 3.359375-7.5 7.5v41.257812c0 26.882813 21.871094 48.753907 48.753906 48.753907h.054688c2.09375 17.164062 9.882812 33.023437 22.382812 45.308593 14.429688 14.183594 33.527344 21.992188 53.765625 21.992188 9.695313 0 19.328125-1.847656 28.292969-5.394531 6.070312 16.554687 16.085938 31.429687 29.289062 43.398437 3.070313 2.78125 7.8125 2.550782 10.59375-.519531s2.550782-7.8125-.519531-10.59375c-13.289062-12.046875-22.832031-27.488281-27.597656-44.664063-1.277344-4.59375-6.597656-6.855468-10.789063-4.59375-8.9375 4.820313-19.054687 7.367188-29.273437 7.367188-16.277344 0-31.640625-6.28125-43.25-17.691406-11.59375-11.394532-18.148437-26.613282-18.460937-42.851563-.085938-4.550781-4.273438-8.011719-8.757813-7.253906-1.921875.328125-3.851563.496094-5.730469.496094-18.613281 0-33.753906-15.144531-33.753906-33.753907v-33.757812h482v33.757812c0 18.609376-15.144531 33.753907-33.753906 33.753907-1.878906 0-3.808594-.167969-5.730469-.496094-4.460937-.761719-8.671875 2.726563-8.757813 7.25-.390624 20.425781-10.613281 38.800781-26.980468 49.875 0 0 3.085937-16.46875 3.101562-16.550781 2.359375-12.605469-14.523437-19.933594-21.855468-9.226563l-24.503907 35.863281c-7.28125-1-14.242187-3.273437-20.742187-6.78125-4.175782-2.253906-9.53125.054688-10.789063 4.59375-11.296875 40.6875-48.710937 69.105469-90.988281 69.105469-14.152344 0-27.777344-3.070312-40.5-9.121093-3.742188-1.78125-8.214844-.1875-9.996094 3.550781-1.777344 3.738281-.1875 8.214843 3.550782 9.996093 14.75 7.015626 30.542968 10.574219 46.945312 10.574219 46.035156 0 87.097656-29.082031 102.746094-71.71875 3.433594 1.363281 6.953125 2.464844 10.542968 3.3125 0 0-60.128906 88.007813-60.253906 88.1875-6.796875 9.953125.578125 23.828125 12.578125 23.828125h56.195313l-16.011719 85.539063c-1.152344 5.6875 1.761719 11.234375 7.105469 13.519531 5.308594 2.269531 11.484375.46875 14.746094-4.296875l44.5625-65.21875c2.335937-3.421875 1.457031-8.089844-1.960938-10.425781-3.421875-2.335938-8.089844-1.457032-10.425781 1.960937l-36.777344 53.832031s15.160156-80.988281 15.167969-81.03125c.855468-4.578124-2.726563-8.878906-7.371094-8.878906h-65.226562c-.105469 0-.140626 0-.207032-.125s-.046875-.15625.011719-.242187l86.207031-126.171875s-15.109375 80.730468-15.167968 81.03125c-.855469 4.585937 2.742187 8.882812 7.375 8.882812h65.222656c.105468 0 .140625 0 .207031.125s.046875.152344-.011719.238282l-32.597656 47.707031c-2.335938 3.417969-1.457031 8.085937 1.960938 10.421875 3.421874 2.335937 8.089843 1.457031 10.425781-1.960938 0 0 32.515625-47.589844 32.59375-47.703125 6.761719-9.898437-.640625-23.828125-12.578125-23.828125h-56.191406l9.347656-49.941406c24.804687-11 41.726562-33.949219 44.980468-60.675781h.050782c26.886718 0 48.757812-21.871094 48.757812-48.753907v-41.257812c-.003906-4.140625-3.363281-7.5-7.503906-7.5zm0 0"></path></svg>