<!-- icon666.com - MILLIONS vector ICONS FREE --><svg viewBox="0 0 512 512" xmlns="http://www.w3.org/2000/svg"><path d="m434.652344 116.960938c32.066406-9.160157 55.054687 30.652343 31.085937 53.839843-18.070312 17.480469-9.886719 48.011719 14.5 54.113281 32.351563 8.097657 32.351563 54.074219 0 62.171876-24.386719 6.101562-32.570312 36.632812-14.5 54.113281 23.96875 23.1875.980469 63.003906-31.085937 53.839843-24.171875-6.90625-46.519532 15.441407-39.613282 39.613282 9.164063 32.066406-30.652343 55.050781-53.839843 31.085937-17.480469-18.070312-48.007813-9.890625-54.113281 14.5-8.097657 32.351563-54.070313 32.351563-62.167969 0-6.105469-24.390625-36.636719-32.570312-54.113281-14.5-23.191407 23.964844-63.003907.980469-53.839844-31.085937 6.90625-24.171875-15.441406-46.519532-39.617188-39.613282-32.0625 9.164063-55.050781-30.652343-31.082031-53.839843 18.070313-17.480469 9.886719-48.011719-14.5-54.113281-32.351563-8.097657-32.351563-54.074219 0-62.171876 24.386719-6.101562 32.570313-36.632812 14.5-54.113281-23.96875-23.1875-.980469-63 31.082031-53.839843 24.175782 6.910156 46.523438-15.441407 39.617188-39.613282-9.164063-32.066406 30.648437-55.050781 53.839844-31.082031 17.476562 18.066406 48.007812 9.886719 54.113281-14.5 8.097656-32.351563 54.070312-32.351563 62.167969 0 6.105468 24.386719 36.632812 32.566406 54.113281 14.5 23.1875-23.96875 63.003906-.984375 53.839843 31.082031-6.910156 24.171875 15.441407 46.523438 39.613282 39.613282zm0 0" fill="#ff9a47"></path><path d="m429.5 256c0 95.820312-77.679688 173.5-173.5 173.5s-173.5-77.679688-173.5-173.5 77.679688-173.5 173.5-173.5 173.5 77.679688 173.5 173.5zm0 0" fill="#ffd576"></path><path d="m256 276.316406c-9.488281 0-17.179688-7.691406-17.179688-17.179687v-9.949219c0-1.640625 1.328126-2.96875 2.96875-2.96875h28.421876c1.640624 0 2.96875 1.328125 2.96875 2.96875v9.949219c0 9.488281-7.691407 17.179687-17.179688 17.179687zm0 0" fill="#262b3b"></path><path d="m122.5 256c0-89.054688 67.101562-162.425781 153.5-172.347656-6.5625-.753906-13.234375-1.152344-20-1.152344-95.820312 0-173.5 77.679688-173.5 173.5s77.679688 173.5 173.5 173.5c6.765625 0 13.4375-.402344 20-1.152344-86.398438-9.921875-153.5-83.292968-153.5-172.347656zm0 0" fill="#f9c153"></path><path d="m325.292969 276.003906h-11.34375c-4.140625 0-7.5-3.355468-7.5-7.5 0-4.140625 3.359375-7.5 7.5-7.5h11.34375c4.144531 0 7.5 3.359375 7.5 7.5 0 4.144532-3.355469 7.5-7.5 7.5zm0 0" fill="#f17b31"></path><path d="m198.050781 276.003906h-11.347656c-4.140625 0-7.5-3.355468-7.5-7.5 0-4.140625 3.359375-7.5 7.5-7.5h11.347656c4.140625 0 7.5 3.359375 7.5 7.5 0 4.144532-3.359375 7.5-7.5 7.5zm0 0" fill="#f17b31"></path><path d="m241.789062 238.71875c-5.773437 0-10.46875 4.695312-10.46875 10.46875v9.949219c0 13.609375 11.070313 24.679687 24.679688 24.679687s24.679688-11.070312 24.679688-24.679687v-9.949219c0-5.773438-4.695313-10.46875-10.46875-10.46875zm23.890626 20.417969c0 5.335937-4.339844 9.679687-9.679688 9.679687s-9.679688-4.34375-9.679688-9.679687v-5.417969h19.359376zm0 0"></path><path d="m312.121094 235.683594v11.355468c0 4.144532 3.359375 7.5 7.5 7.5 4.144531 0 7.5-3.355468 7.5-7.5v-11.355468c0-4.144532-3.355469-7.5-7.5-7.5-4.140625 0-7.5 3.355468-7.5 7.5zm0 0"></path><path d="m184.878906 235.683594v11.355468c0 4.144532 3.355469 7.5 7.5 7.5 4.140625 0 7.5-3.355468 7.5-7.5v-11.355468c0-4.144532-3.359375-7.5-7.5-7.5-4.144531 0-7.5 3.355468-7.5 7.5zm0 0"></path><path d="m482.058594 294.359375c17.910156-4.480469 29.941406-19.898437 29.941406-38.359375s-12.03125-33.878906-29.941406-38.359375c-8.773438-2.195313-15.410156-8.722656-17.75-17.457031s.144531-17.703125 6.644531-23.992188c11.828125-11.441406 15.378906-27.929687 9.269531-43.03125-6.152344-15.214844-20.378906-25.042968-36.234375-25.042968-3.765625 0-7.601562.550781-11.394531 1.636718-2.285156.648438-4.605469.980469-6.898438.980469-7.546874 0-14.839843-3.6875-19.503906-9.871094-4.640625-6.15625-6.078125-13.976562-3.941406-21.453125 3.515625-12.308594 1.351562-24.527344-6.09375-34.398437-7.640625-10.128907-19.707031-16.175781-32.28125-16.175781-10.480469 0-20.445312 4.335937-28.066406 12.214843-4.679688 4.835938-10.894532 7.5-17.503906 7.5-9.601563 0-20.726563-5.753906-23.945313-18.609375-4.480469-17.910156-19.898437-29.941406-38.359375-29.941406s-33.878906 12.03125-38.359375 29.941406c-3.21875 12.855469-14.34375 18.605469-23.945313 18.605469-6.609374 0-12.824218-2.664063-17.503906-7.5-7.621094-7.875-17.585937-12.214844-28.066406-12.214844-12.570312 0-24.636719 6.046875-32.277344 16.175781-7.449218 9.875-9.613281 22.09375-6.097656 34.398438 2.136719 7.480469.699219 15.300781-3.941406 21.453125-4.664063 6.183594-11.953125 9.875-19.503906 9.875-2.292969 0-4.609376-.332031-6.898438-.984375-3.792969-1.085938-7.625-1.636719-11.394531-1.636719-15.855469 0-30.078125 9.832031-36.234375 25.046875-6.105469 15.101563-2.554688 31.589844 9.273437 43.03125 6.5 6.285156 8.980469 15.253906 6.640625 23.992188-2.339844 8.734375-8.976562 15.257812-17.75 17.457031-17.910156 4.480469-29.941406 19.898437-29.941406 38.359375s12.03125 33.878906 29.941406 38.359375c8.773438 2.195313 15.410156 8.722656 17.75 17.457031s-.144531 17.703125-6.644531 23.992188c-11.828125 11.441406-15.378906 27.933594-9.269531 43.039062 6.15625 15.207032 20.375 25.035156 36.230468 25.035156h.003907c3.769531 0 7.601562-.550781 11.394531-1.636718 2.285156-.648438 4.605469-.980469 6.894531-.980469 7.550781 0 14.84375 3.6875 19.503907 9.871094 4.644531 6.15625 6.082031 13.976562 3.945312 21.453125-3.519531 12.3125-1.355469 24.53125 6.097656 34.40625 7.636719 10.125 19.699219 16.167968 32.269532 16.167968h.007812c10.480469 0 20.445312-4.339843 28.066406-12.214843 4.675782-4.835938 10.894532-7.5 17.5-7.5 9.601563 0 20.730469 5.753906 23.945313 18.609375 4.484375 17.910156 19.902343 29.941406 38.363281 29.941406s33.878906-12.03125 38.359375-29.941406c3.21875-12.855469 14.34375-18.605469 23.945313-18.605469 6.609374 0 12.824218 2.664063 17.503906 7.5 7.621094 7.875 17.585937 12.214844 28.066406 12.214844 12.570312 0 24.636719-6.046875 32.277344-16.175781 7.449218-9.875 9.613281-22.09375 6.097656-34.398438-2.136719-7.480469-.699219-15.300781 3.941406-21.453125 4.664063-6.183594 11.953125-9.875 19.503906-9.875 2.292969 0 4.609376.332031 6.898438.984375 3.792969 1.085938 7.625 1.636719 11.394531 1.636719 15.855469-.003907 30.078125-9.832031 36.234375-25.046875 6.105469-15.101563 2.554688-31.589844-9.273437-43.03125-6.5-6.285156-8.980469-15.253906-6.640625-23.992188 2.339844-8.734375 8.976562-15.261718 17.75-17.457031zm-21.535156 52.230469c7.453124 7.210937 9.621093 17.164062 5.792968 26.625-3.851562 9.519531-12.617187 15.667968-22.328125 15.667968-2.375 0-4.820312-.355468-7.273437-1.054687-3.625-1.039063-7.332032-1.5625-11.019532-1.5625-12.230468 0-23.996093 5.921875-31.476562 15.839844-7.503906 9.945312-9.835938 22.5625-6.390625 34.605469 2.191406 7.675781.894531 15.21875-3.648437 21.246093-4.75 6.296875-12.53125 10.207031-20.304688 10.207031-6.46875 0-12.445312-2.640624-17.285156-7.644531-7.53125-7.78125-17.574219-12.070312-28.28125-12.070312-18.253906 0-34.082032 12.324219-38.5 29.964843-3.433594 13.71875-14.972656 18.585938-23.808594 18.585938s-20.375-4.867188-23.808594-18.585938c-4.417968-17.640624-20.246094-29.960937-38.496094-29.960937-10.710937 0-20.753906 4.285156-28.285156 12.070313-4.835937 5-10.8125 7.640624-17.285156 7.640624-7.773438.003907-15.554688-3.90625-20.300781-10.203124-4.546875-6.023438-5.84375-13.570313-3.648438-21.246094 3.441407-12.046875 1.109375-24.660156-6.394531-34.609375-7.480469-9.917969-19.246094-15.839844-31.476562-15.839844-3.6875 0-7.390626.523437-11.019532 1.5625-2.449218.699219-4.898437 1.054687-7.273437 1.058594-9.710938 0-18.476563-6.148438-22.328125-15.664063-3.828125-9.460937-1.664063-19.417968 5.792968-26.632812 10.472657-10.128906 14.472657-24.582032 10.703126-38.652344-3.773438-14.074219-14.460938-24.589844-28.59375-28.128906-13.71875-3.433594-18.585938-14.972656-18.585938-23.808594s4.867188-20.375 18.585938-23.808594c14.132812-3.539062 24.820312-14.050781 28.59375-28.125 3.769531-14.074218-.230469-28.523437-10.703126-38.65625-7.453124-7.210937-9.621093-17.164062-5.792968-26.625 3.851562-9.519531 12.617187-15.667968 22.328125-15.667968 2.375 0 4.824219.355468 7.273437 1.054687 3.625 1.039063 7.332032 1.5625 11.019532 1.5625 12.230468 0 23.996093-5.921875 31.476562-15.839844 7.503906-9.945312 9.835938-22.5625 6.390625-34.605469-2.191406-7.675781-.894531-15.21875 3.648437-21.246093 4.75-6.296875 12.53125-10.207031 20.304688-10.207031 6.46875 0 12.445312 2.640624 17.285156 7.644531 7.53125 7.78125 17.574219 12.070312 28.28125 12.070312 18.253906 0 34.082032-12.324219 38.5-29.964843 3.433594-13.71875 14.972656-18.585938 23.808594-18.585938s20.375 4.867188 23.808594 18.585938c4.417968 17.640624 20.246094 29.960937 38.496094 29.960937 10.710937 0 20.753906-4.285156 28.285156-12.070313 4.835937-5 10.8125-7.640624 17.285156-7.640624 7.773438 0 15.554688 3.910156 20.304688 10.203124 4.542968 6.027344 5.839843 13.574219 3.644531 21.246094-3.441407 12.046875-1.109375 24.660156 6.394531 34.609375 7.480469 9.917969 19.246094 15.839844 31.476562 15.839844 3.6875 0 7.390626-.523437 11.019532-1.5625 2.453125-.699219 4.898437-1.058594 7.273437-1.058594 9.710938 0 18.476563 6.152344 22.328125 15.667969 3.828125 9.460938 1.660156 19.414062-5.792968 26.628906-10.472657 10.128906-14.472657 24.582032-10.703126 38.652344 3.773438 14.074219 14.460938 24.589844 28.59375 28.128906 13.71875 3.433594 18.585938 14.972656 18.585938 23.808594s-4.867188 20.375-18.585938 23.808594c-14.132812 3.539062-24.820312 14.050781-28.59375 28.125-3.769531 14.074218.230469 28.523437 10.703126 38.65625zm0 0"></path><path d="m383.328125 137.90625c-3.15625 2.683594-3.535156 7.417969-.851563 10.570312 25.488282 29.953126 39.523438 68.136719 39.523438 107.523438 0 91.53125-74.46875 166-166 166s-166-74.46875-166-166 74.46875-166 166-166c39.386719 0 77.574219 14.039062 107.527344 39.527344 3.15625 2.6875 7.886718 2.304687 10.570312-.851563 2.6875-3.152343 2.304688-7.886719-.851562-10.570312-32.660156-27.796875-74.300782-43.105469-117.246094-43.105469-99.804688 0-181 81.195312-181 181s81.195312 181 181 181 181-81.195312 181-181c0-42.945312-15.308594-84.582031-43.101562-117.242188-2.683594-3.15625-7.417969-3.535156-10.570313-.851562zm0 0"></path></svg>